<?xml version="1.0" encoding="UTF-8" standalone="no"?>
<svg
   xmlns:dc="http://purl.org/dc/elements/1.1/"
   xmlns:cc="http://creativecommons.org/ns#"
   xmlns:rdf="http://www.w3.org/1999/02/22-rdf-syntax-ns#"
   xmlns:svg="http://www.w3.org/2000/svg"
   xmlns="http://www.w3.org/2000/svg"
   xmlns:sodipodi="http://sodipodi.sourceforge.net/DTD/sodipodi-0.dtd"
   xmlns:inkscape="http://www.inkscape.org/namespaces/inkscape"
   inkscape:version="1.0 (4035a4f, 2020-05-01)"
   height="496"
   width="496"
   sodipodi:docname="arrow-alt-circle-down-solid.svg"
   id="svg22"
   version="1.1"
   viewBox="0 0 496 496"
   role="img"
   class="svg-inline--fa fa-arrow-alt-circle-down fa-w-16"
   data-icon="arrow-alt-circle-down"
   data-prefix="fas"
   focusable="false"
   aria-hidden="true">
  <metadata
     id="metadata28">
    <rdf:RDF>
      <cc:Work
         rdf:about="">
        <dc:format>image/svg+xml</dc:format>
        <dc:type
           rdf:resource="http://purl.org/dc/dcmitype/StillImage" />
      </cc:Work>
    </rdf:RDF>
  </metadata>
  <defs
     id="defs26" />
  <sodipodi:namedview
     inkscape:current-layer="svg22"
     inkscape:window-maximized="0"
     inkscape:window-y="23"
     inkscape:window-x="0"
     inkscape:cy="240"
     inkscape:cx="240"
     inkscape:zoom="1.1476306"
     showgrid="false"
     id="namedview24"
     inkscape:window-height="808"
     inkscape:window-width="1365"
     inkscape:pageshadow="2"
     inkscape:pageopacity="0"
     guidetolerance="10"
     gridtolerance="10"
     objecttolerance="10"
     borderopacity="1"
     bordercolor="#666666"
     pagecolor="#ffffff" />
  <path
     id="path20"
     d="M 496,248 C 496,385 385,496 248,496 111,496 0,385 0,248 0,111 111,0 248,0 385,0 496,111 496,248 Z M 204,132 v 116 h -70.9 c -10.7,0 -16.1,13 -8.5,20.5 l 114.9,114.3 c 4.7,4.7 12.2,4.7 16.9,0 L 371.3,268.5 c 7.6,-7.6 2.2,-20.5 -8.5,-20.5 H 292 V 132 c 0,-6.6 -5.4,-12 -12,-12 h -64 c -6.6,0 -12,5.4 -12,12 z"
     fill="currentColor" />
</svg>
