<?xml version="1.0" encoding="UTF-8" standalone="no"?>
<svg
   xmlns:dc="http://purl.org/dc/elements/1.1/"
   xmlns:cc="http://creativecommons.org/ns#"
   xmlns:rdf="http://www.w3.org/1999/02/22-rdf-syntax-ns#"
   xmlns:svg="http://www.w3.org/2000/svg"
   xmlns="http://www.w3.org/2000/svg"
   xmlns:sodipodi="http://sodipodi.sourceforge.net/DTD/sodipodi-0.dtd"
   xmlns:inkscape="http://www.inkscape.org/namespaces/inkscape"
   inkscape:version="1.0 (4035a4f, 2020-05-01)"
   height="496"
   width="496"
   sodipodi:docname="arrow-alt-circle-up-solid.svg"
   id="svg32"
   version="1.1"
   viewBox="0 0 496 496"
   role="img"
   class="svg-inline--fa fa-arrow-alt-circle-up fa-w-16"
   data-icon="arrow-alt-circle-up"
   data-prefix="fas"
   focusable="false"
   aria-hidden="true">
  <metadata
     id="metadata38">
    <rdf:RDF>
      <cc:Work
         rdf:about="">
        <dc:format>image/svg+xml</dc:format>
        <dc:type
           rdf:resource="http://purl.org/dc/dcmitype/StillImage" />
      </cc:Work>
    </rdf:RDF>
  </metadata>
  <defs
     id="defs36" />
  <sodipodi:namedview
     inkscape:current-layer="svg32"
     inkscape:window-maximized="0"
     inkscape:window-y="23"
     inkscape:window-x="0"
     inkscape:cy="248"
     inkscape:cx="248"
     inkscape:zoom="1.8808594"
     showgrid="false"
     id="namedview34"
     inkscape:window-height="480"
     inkscape:window-width="689"
     inkscape:pageshadow="2"
     inkscape:pageopacity="0"
     guidetolerance="10"
     gridtolerance="10"
     objecttolerance="10"
     borderopacity="1"
     bordercolor="#666666"
     pagecolor="#ffffff" />
  <path
     id="path30"
     d="M 0,248 C 0,111 111,0 248,0 385,0 496,111 496,248 496,385 385,496 248,496 111,496 0,385 0,248 Z M 292,364 V 248 h 70.9 c 10.7,0 16.1,-13 8.5,-20.5 L 256.5,113.2 c -4.7,-4.7 -12.2,-4.7 -16.9,0 l -115,114.3 c -7.6,7.6 -2.2,20.5 8.5,20.5 H 204 v 116 c 0,6.6 5.4,12 12,12 h 64 c 6.6,0 12,-5.4 12,-12 z"
     fill="currentColor" />
</svg>
