<?xml version="1.0" encoding="UTF-8" standalone="no"?>
<svg
   xmlns:dc="http://purl.org/dc/elements/1.1/"
   xmlns:cc="http://creativecommons.org/ns#"
   xmlns:rdf="http://www.w3.org/1999/02/22-rdf-syntax-ns#"
   xmlns:svg="http://www.w3.org/2000/svg"
   xmlns="http://www.w3.org/2000/svg"
   xmlns:sodipodi="http://sodipodi.sourceforge.net/DTD/sodipodi-0.dtd"
   xmlns:inkscape="http://www.inkscape.org/namespaces/inkscape"
   inkscape:version="1.0 (4035a4f, 2020-05-01)"
   height="14.014151"
   width="11.507833"
   sodipodi:docname="noun_Euro_2343076.svg"
   id="svg154"
   version="1.1"
   y="0px"
   x="0px"
   viewBox="0 0 11.507833 14.014151">
  <metadata
     id="metadata160">
    <rdf:RDF>
      <cc:Work
         rdf:about="">
        <dc:format>image/svg+xml</dc:format>
        <dc:type
           rdf:resource="http://purl.org/dc/dcmitype/StillImage" />
      </cc:Work>
    </rdf:RDF>
  </metadata>
  <defs
     id="defs158" />
  <sodipodi:namedview
     inkscape:current-layer="svg154"
     inkscape:window-maximized="0"
     inkscape:window-y="23"
     inkscape:window-x="0"
     inkscape:cy="22.698547"
     inkscape:cx="5.75"
     inkscape:zoom="4.15"
     showgrid="false"
     id="namedview156"
     inkscape:window-height="898"
     inkscape:window-width="1274"
     inkscape:pageshadow="2"
     inkscape:pageopacity="0"
     guidetolerance="10"
     gridtolerance="10"
     objecttolerance="10"
     borderopacity="1"
     bordercolor="#666666"
     pagecolor="#ffffff" />
  <title
     id="title146">euro, currency, european, money, finance</title>
  <path
     id="path148"
     d="m 10.1657,11.70355 a 4.9272,4.9272 0 0 1 -1.666,0.3106 4.9779,4.9779 0 0 1 -3.9749,-2 H 7 A 1,1 0 1 0 7,8.0141504 H 3.601 a 5.0005,5.0005 0 0 1 0,-2 H 7 a 1,1 0 1 0 0,-2 H 4.5248 a 4.8624,4.8624 0 0 1 5.6409,-1.6894 1.0007,1.0007 0 1 0 0.6679,-1.88659999 6.8646,6.8646 0 0 0 -8.658,3.57599999 H 1 a 1,1 0 1 0 0,2 h 0.5776 a 7.0987,7.0987 0 0 0 -0.0776,1 6.9128,6.9128 0 0 0 0.101,1 H 1 A 1,1 0 1 0 1,10.01415 h 1.2022 a 6.99,6.99 0 0 0 6.2975,4 6.9193,6.9193 0 0 0 2.3339,-0.4238 1.0007157,1.0007157 0 1 0 -0.6679,-1.8867 z" />
</svg>
