<?xml version="1.0" encoding="UTF-8" standalone="no"?>
<svg
   xmlns:dc="http://purl.org/dc/elements/1.1/"
   xmlns:cc="http://creativecommons.org/ns#"
   xmlns:rdf="http://www.w3.org/1999/02/22-rdf-syntax-ns#"
   xmlns:svg="http://www.w3.org/2000/svg"
   xmlns="http://www.w3.org/2000/svg"
   xmlns:sodipodi="http://sodipodi.sourceforge.net/DTD/sodipodi-0.dtd"
   xmlns:inkscape="http://www.inkscape.org/namespaces/inkscape"
   inkscape:version="1.0 (4035a4f, 2020-05-01)"
   height="88.000999"
   width="83.044998"
   sodipodi:docname="noun_Beer_style1_1975813.svg"
   id="svg400"
   xml:space="preserve"
   enable-background="new 0 0 100 100"
   viewBox="0 0 83.044998 88.000999"
   y="0px"
   x="0px"
   version="1.1"><metadata
     id="metadata406"><rdf:RDF><cc:Work
         rdf:about=""><dc:format>image/svg+xml</dc:format><dc:type
           rdf:resource="http://purl.org/dc/dcmitype/StillImage" /></cc:Work></rdf:RDF></metadata><defs
     id="defs404" /><sodipodi:namedview
     inkscape:current-layer="svg400"
     inkscape:window-maximized="0"
     inkscape:window-y="23"
     inkscape:window-x="0"
     inkscape:cy="56.501"
     inkscape:cx="41.522"
     inkscape:zoom="5.0756995"
     showgrid="false"
     id="namedview402"
     inkscape:window-height="817"
     inkscape:window-width="1243"
     inkscape:pageshadow="2"
     inkscape:pageopacity="0"
     guidetolerance="10"
     gridtolerance="10"
     objecttolerance="10"
     borderopacity="1"
     bordercolor="#666666"
     pagecolor="#ffffff" /><g
     transform="translate(-8.478,-5.999)"
     id="g394"><path
       id="path380"
       d="m 84.523,44 h -13 v -6.496 c 0.252,-0.098 0.496,-0.21 0.736,-0.331 0.018,-0.01 0.037,-0.02 0.057,-0.029 2.645,-1.367 4.389,-4.127 4.389,-7.188 0,-4.151 -3.143,-7.582 -7.184,-8.04 C 69.464,18.644 66.785,16 63.5,16 63.381,16 63.26,16.003 63.141,16.011 62.766,10.946 58.526,6.94 53.368,6.94 c -3.724,0 -7.084,2.087 -8.747,5.373 -0.003,0 -0.006,0 -0.009,0 -5.432,0 -9.862,4.317 -10.069,9.699 h -0.012 c -0.006,0.129 -0.008,0.259 -0.008,0.39 v 0 c 0,0 0,0 0,0 0,0.23 0.008,0.461 0.023,0.69 -1.473,0.223 -2.902,0.846 -4.085,1.75 L 29.907,18 h -0.001 l -0.245,-3.019 c 0.762,-0.049 1.432,-0.508 1.726,-1.223 0.31,-0.752 0.136,-1.609 -0.441,-2.183 -0.163,-0.162 -0.416,-0.332 -0.8,-0.546 0.491,-0.535 0.792,-1.248 0.792,-2.03 0,-1.654 -1.346,-3 -2.999,-3 h -9.844 c -1.653,0 -2.999,1.346 -2.999,3 0,0.789 0.306,1.507 0.805,2.042 -0.381,0.212 -0.623,0.375 -0.783,0.534 -0.578,0.574 -0.751,1.432 -0.44,2.184 0.291,0.706 0.951,1.161 1.703,1.218 -0.519,6.366 -1.049,12.725 -1.604,19.087 -0.152,1.747 -0.713,3.215 -1.766,4.618 L 9.924,42.797 C 8.981,44.054 8.523,45.428 8.523,47 V 59.034 C 8.499,59.335 8.478,59.639 8.478,59.948 V 73.05 c 0,0.309 0.021,0.611 0.045,0.914 v 15.033 c 0,2.758 2.244,5.002 5.003,5.002 H 32.52 c 0.603,0 1.172,-0.123 1.707,-0.318 0.748,0.198 1.517,0.319 2.296,0.319 h 26 c 4.625,0 8.441,-3.508 8.941,-8.002 h 5.059 c 8.271,0 15,-6.729 15,-14.998 V 51 c 0,-3.86 -3.14,-7 -7,-7 z M 34.886,25.066 c 0.226,0.824 0.553,1.621 0.981,2.366 l 1.732,-0.998 c -0.511,-0.888 -0.841,-1.866 -0.987,-2.876 -0.01,-0.068 -0.02,-0.136 -0.027,-0.204 -0.037,-0.316 -0.063,-0.634 -0.063,-0.954 0,-4.215 3.244,-7.684 7.366,-8.052 -0.196,0.767 -0.322,1.562 -0.322,2.39 0,0.958 0.14,1.907 0.414,2.822 l 1.916,-0.576 c -0.219,-0.728 -0.33,-1.483 -0.33,-2.246 0,-1.228 0.296,-2.383 0.808,-3.414 0.027,-0.058 0.058,-0.115 0.087,-0.172 0.167,-0.317 0.351,-0.625 0.558,-0.916 1.442,-2.036 3.778,-3.298 6.348,-3.298 4.223,0 7.666,3.376 7.787,7.571 -1.48,0.628 -2.695,1.822 -3.285,3.378 l 1.871,0.708 c 0.422,-1.114 1.322,-1.953 2.408,-2.343 0.002,-0.012 0.008,-0.023 0.01,-0.035 l 0.264,-0.073 c 0.352,-0.097 0.713,-0.146 1.078,-0.146 2.219,0 4.023,1.804 4.023,4.022 0,1.241 -0.561,2.394 -1.535,3.161 l 1.236,1.572 c 0.951,-0.749 1.633,-1.745 1.996,-2.86 3.076,0.306 5.484,2.907 5.484,6.061 0,0.946 -0.232,1.849 -0.631,2.663 -0.066,0.138 -0.141,0.272 -0.219,0.403 -0.076,0.132 -0.158,0.26 -0.246,0.385 -0.088,0.129 -0.18,0.256 -0.277,0.377 -0.092,0.113 -0.191,0.221 -0.291,0.326 -0.111,0.119 -0.221,0.237 -0.34,0.346 -0.105,0.098 -0.221,0.184 -0.334,0.272 -0.127,0.101 -0.25,0.206 -0.385,0.296 -0.156,0.104 -0.324,0.191 -0.49,0.28 -0.176,0.095 -0.354,0.183 -0.539,0.26 -0.205,0.086 -0.41,0.169 -0.627,0.233 -0.545,0.16 -1.117,0.25 -1.713,0.25 -3.344,0 -6.076,-2.721 -6.09,-6.065 v -0.982 h -21 c -1.654,0 -3,1.346 -3,3 v 17.997 c 0,0.551 -0.448,1 -1,1 v 0 -3.973 c 0,-1.317 -0.342,-2.49 -1,-3.575 V 31.999 c 0,-1.654 -1.346,-3 -3,-3 h -2.726 l -0.13,-1.602 c 1.015,-1.219 2.605,-2.095 4.22,-2.331 z m 0.636,47.989 C 35.519,77.988 31.651,82 26.897,82 h -7.794 c -4.458,0 -8.138,-3.527 -8.581,-8.033 V 59.033 c 0.443,-4.508 4.123,-8.035 8.581,-8.035 h 7.794 c 4.756,0 8.625,4.015 8.625,8.949 V 68.01 Z M 34.523,40.718 33.008,38.724 c -1.087,-1.43 -1.661,-2.931 -1.806,-4.722 l -0.243,-3.003 h 2.563 c 0.552,0 1,0.449 1,1 v 8.719 z M 17.976,20 h 10.086 l 0.372,4.601 C 27.062,25.807 24.746,27 23.014,27 c -1.732,0 -4.049,-1.193 -5.42,-2.399 z m 0.158,-2 c 0.083,-1 0.172,-2 0.253,-3 h 9.27 L 27.9,18 Z M 17.875,12.267 C 18.059,12.175 18.228,12.088 18.382,12 h 2.14 v -2 h -2.425 c -0.001,0 -0.002,0 -0.003,0 -0.551,0 -0.999,-0.449 -0.999,-1 0,-0.542 0.458,-1 0.999,-1 h 9.844 c 0.551,0 0.999,0.449 0.999,1 0,0.551 -0.448,1 -0.999,1 -10e-4,0 -0.002,0 -0.003,0 h -4.413 v 2 h 4.151 c 0.121,0.067 0.248,0.132 0.381,0.198 0.39,0.194 1.301,0.648 1.49,0.801 0,0 -0.003,10e-4 -0.01,10e-4 H 29.5 v 0 H 16.543 l -10e-4,0.015 h -0.037 c 0.182,-0.149 0.985,-0.554 1.37,-0.748 z m -7.353,34.734 c 0,-1.139 0.318,-2.092 1.001,-3.002 l 3.087,-4.115 c 1.287,-1.717 1.973,-3.511 2.158,-5.646 0.212,-2.427 0.407,-4.856 0.613,-7.284 1.64,1.124 3.78,2.046 5.633,2.046 1.845,0 3.975,-0.916 5.611,-2.033 l 0.583,7.196 c 0.178,2.189 0.879,4.023 2.208,5.771 l 3.086,4.061 c 0.696,0.916 1.021,1.877 1.021,3.027 V 51 h -0.001 v 2.579 c -1.931,-2.767 -5.073,-4.58 -8.625,-4.58 h -7.794 c -3.525,0 -6.647,1.786 -8.581,4.519 z M 13.525,92 c -1.656,0 -3.003,-1.346 -3.003,-3.002 V 79.48 c 1.934,2.732 5.056,4.52 8.581,4.52 h 7.794 c 3.552,0 6.694,-1.813 8.624,-4.58 v 9.578 c 0,1.656 -1.347,3.002 -3.002,3.002 z m 48.998,0 h -26 c -0.009,0 -0.018,-0.002 -0.026,-0.002 0.634,-0.838 1.024,-1.871 1.024,-3 V 86 H 66.523 V 84 H 37.521 v -4 h 10e-4 V 73.051 68.01 l 0.001,-15.014 v 0 c 1.654,0 3,-1.346 3,-3 V 31.999 c 0,-0.551 0.448,-1 1,-1 h 19.075 c 0.516,3.966 3.918,7.047 8.016,7.047 0.311,0 0.609,-0.039 0.91,-0.073 v 2.025 h -24 v 2 h 24 V 44 v 7 28 6 c -0.001,3.859 -3.141,7 -7.001,7 z m 9,-41 h 11 c 1.102,0 2,0.899 2,2 v 15 c 0,6.064 -4.936,11 -11,11 h -2 z m 18,20 c 0,7.168 -5.832,12.998 -13,12.998 h -5 V 81 h 2 c 7.168,0 13,-5.832 13,-13 V 53 c 0,-2.206 -1.795,-4 -4,-4 h -11 v -3 h 13 c 2.756,0 5,2.244 5,5 z" /><rect
       id="rect382"
       height="29"
       width="2"
       y="51"
       x="62.521" /><rect
       id="rect384"
       height="29"
       width="2"
       y="51"
       x="53.521" /><rect
       id="rect386"
       height="29"
       width="2"
       y="51"
       x="44.521999" /><rect
       id="rect388"
       height="2"
       width="17"
       y="67"
       x="14.522" /><rect
       id="rect390"
       height="2"
       width="9"
       y="71"
       x="18.521999" /><path
       id="path392"
       d="m 23,62.023 c 1.937,0 3.512,-1.576 3.512,-3.512 C 26.511,56.574 24.936,55 23,55 c -1.936,0 -3.511,1.574 -3.511,3.512 0,1.935 1.575,3.511 3.511,3.511 z M 23,57 c 0.834,0 1.512,0.678 1.512,1.512 0,0.834 -0.679,1.511 -1.512,1.511 -0.833,0 -1.511,-0.678 -1.511,-1.512 C 21.489,57.677 22.167,57 23,57 Z" /></g></svg>
