<?xml version="1.0" encoding="UTF-8" standalone="no"?>
<svg
   xmlns:dc="http://purl.org/dc/elements/1.1/"
   xmlns:cc="http://creativecommons.org/ns#"
   xmlns:rdf="http://www.w3.org/1999/02/22-rdf-syntax-ns#"
   xmlns:svg="http://www.w3.org/2000/svg"
   xmlns="http://www.w3.org/2000/svg"
   xmlns:sodipodi="http://sodipodi.sourceforge.net/DTD/sodipodi-0.dtd"
   xmlns:inkscape="http://www.inkscape.org/namespaces/inkscape"
   inkscape:version="1.0 (4035a4f, 2020-05-01)"
   height="86.000015"
   width="72"
   sodipodi:docname="noun_Wine_Bottles_1922141.svg"
   id="svg62"
   viewBox="0 0 72 86.000015"
   y="0px"
   x="0px"
   version="1.1">
  <metadata
     id="metadata68">
    <rdf:RDF>
      <cc:Work
         rdf:about="">
        <dc:format>image/svg+xml</dc:format>
        <dc:type
           rdf:resource="http://purl.org/dc/dcmitype/StillImage" />
      </cc:Work>
    </rdf:RDF>
  </metadata>
  <defs
     id="defs66" />
  <sodipodi:namedview
     inkscape:current-layer="svg62"
     inkscape:window-maximized="0"
     inkscape:window-y="23"
     inkscape:window-x="0"
     inkscape:cy="25.385789"
     inkscape:cx="36"
     inkscape:zoom="7.704"
     showgrid="false"
     id="namedview64"
     inkscape:window-height="869"
     inkscape:window-width="1242"
     inkscape:pageshadow="2"
     inkscape:pageopacity="0"
     guidetolerance="10"
     gridtolerance="10"
     objecttolerance="10"
     borderopacity="1"
     bordercolor="#666666"
     pagecolor="#ffffff" />
  <g
     id="g56"
     transform="translate(-14,-959.36216)">
    <path
       id="path54"
       overflow="visible"
       display="inline"
       visibility="visible"
       marker="none"
       stroke="none"
       fill-opacity="1"
       fill="#000000"
       transform="translate(0,952.36218)"
       d="M 46.8125,7 C 46.21305,7.1633745 45.674968,7.6189718 45.46875,8 45.23047,8.45868 45.151052,8.91237 45.09375,9.34375 45.08013,9.660888 45.02249,10.073689 45,10.3125 c -0.431331,0.22471 -0.967709,0.87116 -1,1.625 -4.46e-4,0.0104 2.52e-4,0.02085 0,0.03125 -0.01,0.62655 0.329296,1.17072 0.6875,1.46875 0.10233,0.0851 0.208656,0.0938 0.3125,0.15625 V 31.5 c -1.729845,1.18055 -3.358808,2.88607 -4.625,4.71875 C 38.991988,38.22062 38,40.23778 38,42 v 46 c 0,1.5875 1.100321,2.8574 2.5625,3.6875 C 42.024679,92.5176 43.939318,93 46,93 c 2.666667,0 5.333333,0 8,0 2.060682,0 3.975321,-0.4824 5.4375,-1.3125 C 60.899679,90.8574 62,89.5875 62,88 V 42 C 62,40.23778 61.008012,38.22052 59.625,36.21875 58.358808,34.38607 56.729845,32.68055 55,31.5 V 13.59375 c 0.10384,-0.0624 0.210171,-0.0711 0.3125,-0.15625 0.3582,-0.29802 0.697486,-0.8422 0.6875,-1.46875 -2.52e-4,-0.0105 4.46e-4,-0.02085 0,-0.03125 -0.03229,-0.75384 -0.568668,-1.40029 -1,-1.625 C 54.970079,10.108852 54.933465,9.6125278 54.90625,9.34375 54.84895,8.91237 54.769531,8.45868 54.53125,8 54.167747,7.3658373 53.75234,7.0359972 53.0625,7 c -2.137618,-3.46e-5 -4.35555,-4e-7 -6.25,0 z m 0.40625,2 c 1.854167,0 3.708333,0 5.5625,0 0.05131,0.12013 0.119285,0.34672 0.15625,0.625 0.0409,0.30788 0.05821,0.64433 0.0625,0.90625 9.5e-5,0.206207 0,0.411358 0,0.59375 -0.02352,0.501477 0.428071,0.741655 0.8125,0.875 -0.458402,0.08747 -0.820723,0.5334 -0.8125,1 v 19 c 0.0012,0.335748 0.184306,0.665369 0.46875,0.84375 1.536763,0.93845 3.244719,2.71436 4.5,4.53125 C 59.224031,39.19194 60,41.14172 60,42 v 46 c 0,0.6265 -0.476866,1.3211 -1.5625,1.9375 C 57.351866,90.5539 55.748068,91 54,91 51.333333,91 48.666667,91 46,91 44.251932,91 42.648134,90.5539 41.5625,89.9375 40.476866,89.3211 40,88.6265 40,88 V 42 c 0,-0.85828 0.775969,-2.80811 2.03125,-4.625 1.255281,-1.81689 2.963237,-3.5928 4.5,-4.53125 C 46.815694,32.665369 46.998817,32.335748 47,32 V 13 C 47.0082,12.5334 46.645902,12.087467 46.1875,12 46.714012,11.873157 46.982106,11.628533 47,11.125 47.0022,10.92437 47,10.701993 47,10.53125 47.0043,10.26933 47.0216,9.93288 47.0625,9.625 47.09947,9.34672 47.167437,9.12014 47.21875,9 Z M 22.8125,16 c -0.508448,0.05541 -0.935438,0.2745 -1.28125,0.78125 -0.274714,0.40291 -0.374532,0.82633 -0.4375,1.1875 -0.03911,0.22435 -0.05149,0.37723 -0.0625,0.5625 -0.196147,0.083 -0.415135,0.20205 -0.625,0.4375 C 20.177335,19.22557 20.012017,19.62043 20,20 c -0.03199,0.6793 0.446284,1.17409 0.8125,1.40625 0.06594,0.0418 0.122555,0.0288 0.1875,0.0625 v 13 C 19.312099,35.38434 17.684805,36.68195 16.4375,38.125 15.040968,39.74069 14,41.31475 14,42.90625 V 77.9375 c 0,0.737 0.35791,1.41215 0.84375,1.90625 0.48584,0.494 1.122478,0.84425 1.84375,1.15625 1.442543,0.624 3.289031,1 5.3125,1 h 9 c 0.528313,0.0075 1.014242,-0.471635 1.014242,-1 0,-0.528365 -0.485929,-1.007472 -1.014242,-1 h -9 c -1.785281,0 -3.42598,-0.3344 -4.53125,-0.8125 -0.552635,-0.2391 -0.955957,-0.5145 -1.1875,-0.75 C 16.049707,78.202 16,78.0439 16,77.9375 V 42.90625 c 0,-0.40507 0.726988,-2.03211 1.96875,-3.46875 1.241762,-1.43664 2.905189,-2.81831 4.4375,-3.53125 C 22.75498,35.751194 22.997104,35.381636 23,35 V 20.78125 C 23.013649,20.434385 22.860712,20.08819 22.625,20 22.904268,19.91861 22.997002,19.692414 23,19.4375 c 0.0037,-0.167718 0,-0.345889 0,-0.5 0.0041,-0.18918 0.02727,-0.42292 0.0625,-0.625 0.02704,-0.15511 0.06655,-0.25035 0.09375,-0.3125 1.895833,0 3.791667,0 5.6875,0 0.0272,0.0621 0.06671,0.15739 0.09375,0.3125 0.03523,0.20208 0.05843,0.43582 0.0625,0.625 -1.12e-4,0.168494 0,0.3718 0,0.5 -0.0063,0.262093 0.206155,0.481536 0.356289,0.565826 C 29.063845,20.134687 28.977503,20.602248 29,20.78125 V 35 c 0.0029,0.381636 0.24502,0.751194 0.59375,0.90625 0.824622,0.38368 1.860692,1.10207 2.75,1.875 0.383224,0.3968 1.108768,0.37896 1.472028,-0.03619 0.36326,-0.415159 0.284631,-1.13665 -0.159528,-1.46381 C 32.849245,35.5798 31.909415,35.00802 31,34.5 V 21.46875 c 0.06494,-0.0337 0.121566,-0.0207 0.1875,-0.0625 C 31.553703,21.17411 32.031991,20.6793 32,20 c -0.01202,-0.37957 -0.177336,-0.77443 -0.40625,-1.03125 -0.209865,-0.23544 -0.428854,-0.35445 -0.625,-0.4375 -0.01101,-0.18527 -0.02339,-0.33815 -0.0625,-0.5625 -0.06297,-0.36117 -0.16278,-0.78459 -0.4375,-1.1875 C 30.113418,16.236186 29.578768,16.032841 29.0625,16 c -2.155532,-3.5e-5 -4.300954,-10e-7 -6.25,0 z m 48,0 c -0.541662,0.101298 -0.859383,0.236071 -1.28125,0.78125 -0.27472,0.40291 -0.374532,0.82633 -0.4375,1.1875 -0.03911,0.22435 -0.05149,0.37723 -0.0625,0.5625 -0.196146,0.083 -0.415135,0.20206 -0.625,0.4375 C 68.177336,19.22557 68.012015,19.62043 68,20 c -0.03199,0.6793 0.446297,1.17411 0.8125,1.40625 0.06593,0.0418 0.12256,0.0288 0.1875,0.0625 v 13 c -0.90048,0.48842 -1.833138,1.03466 -2.65625,1.75 -0.401014,0.343571 -0.453206,1.021084 -0.109545,1.422021 0.34366,0.400937 1.021184,0.452979 1.422045,0.109229 0.872565,-0.75832 1.898068,-1.44736 2.75,-1.84375 C 70.75498,35.751194 70.997104,35.381636 71,35 V 20.78125 C 71.029211,20.372656 70.768666,20.113332 70.625,20 70.925081,19.795676 70.986035,19.652672 71,19.4375 c 0.0037,-0.167725 0,-0.345899 0,-0.5 0.0041,-0.18918 0.02727,-0.42292 0.0625,-0.625 0.02704,-0.15511 0.06655,-0.25035 0.09375,-0.3125 1.895833,0 3.791667,0 5.6875,0 0.0272,0.0621 0.06671,0.15739 0.09375,0.3125 0.03523,0.20208 0.05843,0.43582 0.0625,0.625 -1.13e-4,0.168491 0,0.371901 0,0.5 -0.0091,0.264906 0.151736,0.492799 0.368958,0.562078 C 77.113459,20.161329 76.986959,20.442044 77,20.78125 V 35 c 0.0029,0.381636 0.24502,0.751194 0.59375,0.90625 1.532311,0.71294 3.195738,2.09461 4.4375,3.53125 C 83.273012,40.87409 84,42.50118 84,42.90625 V 70 c -2.387253,-2.1e-5 -4.815674,0 -7.1875,0 -0.523599,0.04909 -0.955337,0.570151 -0.90625,1.09375 C 75.955338,71.617349 76.476401,72.049087 77,72 h 7 v 3 c -3.721946,-9e-6 -7.480435,0 -11.1875,0 -0.523599,0.04909 -0.955337,0.570151 -0.90625,1.09375 C 71.955338,76.617349 72.476401,77.049087 73,77 h 11 v 0.9375 c 0,0.1064 -0.04971,0.2645 -0.28125,0.5 -0.231543,0.2355 -0.634865,0.5109 -1.1875,0.75 C 81.42598,79.6656 79.785281,80 78,80 h -9 c -0.528313,-0.0075 -1.014242,0.471635 -1.014242,1 0,0.528365 0.485929,1.007472 1.014242,1 h 9 c 2.023469,0 3.869957,-0.376 5.3125,-1 0.721272,-0.312 1.35791,-0.66225 1.84375,-1.15625 C 85.64209,79.34965 86,78.6745 86,77.9375 V 42.90625 C 86,41.31475 84.959032,39.74069 83.5625,38.125 82.315195,36.68195 80.687901,35.38434 79,34.46875 v -13 c 0.06494,-0.0337 0.121563,-0.0207 0.1875,-0.0625 C 79.553716,21.17409 80.031991,20.6793 80,20 c -0.01202,-0.37957 -0.177335,-0.77443 -0.40625,-1.03125 -0.209865,-0.23545 -0.428853,-0.35445 -0.625,-0.4375 -0.01101,-0.18527 -0.02339,-0.33815 -0.0625,-0.5625 -0.06297,-0.36117 -0.162786,-0.78459 -0.4375,-1.1875 -0.124378,-0.18242 -0.436443,-0.20197 -0.65625,-0.34375 1.63e-4,-0.01042 1.63e-4,-0.02083 0,-0.03125 -0.173955,-0.236678 -0.456729,-0.389847 -0.75,-0.40625 -0.0102,-4.5e-4 -0.02102,2.4e-4 -0.03125,0 -0.01042,-1.63e-4 -0.02083,-1.63e-4 -0.03125,0 -2.191579,-1.1e-5 -4.293238,0 -6.1875,0 z M 52.96875,37.96875 c -0.804462,0.0044 -1.259477,1.217744 -0.65625,1.75 0.814317,0.7806 1.516565,1.54545 2,2.21875 C 54.795935,42.6108 55,43.20748 55,43.34375 V 59 c -0.0075,0.528313 0.471635,1.014242 1,1.014242 0.528365,0 1.007472,-0.485929 1,-1.014242 V 43.34375 c 0,-0.94533 -0.467784,-1.73422 -1.0625,-2.5625 -0.594716,-0.82828 -1.37692,-1.69433 -2.25,-2.53125 -0.189778,-0.183705 -0.454694,-0.287368 -0.71875,-0.28125 z m 2.90625,25 C 55.383772,63.030302 54.980739,63.505306 55,64 v 1 c -0.0075,0.528313 0.471635,1.014242 1,1.014242 0.528365,0 1.007472,-0.485929 1,-1.014242 v -1 c 0.02261,-0.578237 -0.550908,-1.103962 -1.125,-1.03125 z"
       style="color:#000000;text-indent:0;text-transform:none;direction:ltr;baseline-shift:baseline;enable-background:accumulate" />
  </g>
</svg>
