<?xml version="1.0" encoding="UTF-8" standalone="no"?>
<svg
   xmlns:dc="http://purl.org/dc/elements/1.1/"
   xmlns:cc="http://creativecommons.org/ns#"
   xmlns:rdf="http://www.w3.org/1999/02/22-rdf-syntax-ns#"
   xmlns:svg="http://www.w3.org/2000/svg"
   xmlns="http://www.w3.org/2000/svg"
   xmlns:sodipodi="http://sodipodi.sourceforge.net/DTD/sodipodi-0.dtd"
   xmlns:inkscape="http://www.inkscape.org/namespaces/inkscape"
   inkscape:version="1.0 (4035a4f, 2020-05-01)"
   height="90.000999"
   width="28.031"
   sodipodi:docname="noun_wine_bottle_246969.svg"
   id="svg76"
   xml:space="preserve"
   enable-background="new 0 0 100 100"
   viewBox="0 0 28.031 90.000999"
   y="0px"
   x="0px"
   version="1.1"><metadata
     id="metadata82"><rdf:RDF><cc:Work
         rdf:about=""><dc:format>image/svg+xml</dc:format><dc:type
           rdf:resource="http://purl.org/dc/dcmitype/StillImage" /></cc:Work></rdf:RDF></metadata><defs
     id="defs80" /><sodipodi:namedview
     inkscape:current-layer="svg76"
     inkscape:window-maximized="0"
     inkscape:window-y="23"
     inkscape:window-x="0"
     inkscape:cy="71.518692"
     inkscape:cx="14.015"
     inkscape:zoom="7.704"
     showgrid="false"
     id="namedview78"
     inkscape:window-height="953"
     inkscape:window-width="1227"
     inkscape:pageshadow="2"
     inkscape:pageopacity="0"
     guidetolerance="10"
     gridtolerance="10"
     objecttolerance="10"
     borderopacity="1"
     bordercolor="#666666"
     pagecolor="#ffffff" /><path
     id="path70"
     d="M 19.921,27.756 V 4.118 C 19.921,1.061 17.948,0.091 16.816,0 l -5.69,0.004 C 10.081,0.091 8.109,1.062 8.109,4.118 V 27.756 C 6.786,29.591 0,39.277 0,44.838 v 40.477 c 0,3.153 1.789,4.686 5.472,4.686 h 17.086 c 3.684,0 5.473,-1.532 5.473,-4.686 V 44.838 c 0,-5.561 -6.787,-15.247 -8.11,-17.082 z m 5.951,57.558 c 0,1.48 -0.238,2.527 -3.314,2.527 H 5.472 c -3.076,0 -3.314,-1.047 -3.314,-2.527 V 44.838 c 0,-4.417 5.701,-13.113 7.898,-16.09 0.137,-0.186 0.211,-0.411 0.211,-0.641 V 4.118 c 0,-1.728 0.887,-1.942 0.947,-1.961 L 16.699,2.15 c 0.178,0.025 1.064,0.24 1.064,1.968 v 23.989 c 0,0.229 0.074,0.455 0.211,0.641 2.197,2.977 7.898,11.669 7.898,16.09 z M 11.579,17.359 h 4.729 c 0.596,0 1.078,-0.482 1.078,-1.079 V 4.963 c 0,-0.596 -0.482,-1.078 -1.078,-1.078 h -2.294 c -0.596,0 -1.078,0.482 -1.078,1.078 0,0.597 0.482,1.079 1.078,1.079 h 1.216 v 9.159 h -3.651 c -0.597,0 -1.079,0.482 -1.079,1.079 0,0.597 0.482,1.079 1.079,1.079 z M 3.702,48.04 v 27.535 c 0,0.596 0.482,1.078 1.078,1.078 h 17.778 c 0.598,0 1.08,-0.482 1.08,-1.078 V 48.04 c 0,-0.596 -0.482,-1.078 -1.08,-1.078 H 4.78 c -0.596,0 -1.078,0.482 -1.078,1.078 z m 2.157,1.079 H 21.48 V 74.496 H 5.859 Z"
     fill="#000000" /></svg>
