<?xml version="1.0" encoding="UTF-8" standalone="no"?>
<svg
   xmlns:dc="http://purl.org/dc/elements/1.1/"
   xmlns:cc="http://creativecommons.org/ns#"
   xmlns:rdf="http://www.w3.org/1999/02/22-rdf-syntax-ns#"
   xmlns:svg="http://www.w3.org/2000/svg"
   xmlns="http://www.w3.org/2000/svg"
   xmlns:sodipodi="http://sodipodi.sourceforge.net/DTD/sodipodi-0.dtd"
   xmlns:inkscape="http://www.inkscape.org/namespaces/inkscape"
   inkscape:version="1.0 (4035a4f, 2020-05-01)"
   height="46.098"
   width="87.741997"
   sodipodi:docname="noun_Bat_689342.svg"
   id="svg120"
   xml:space="preserve"
   enable-background="new 0 0 100 100"
   viewBox="0 0 87.741997 46.098"
   y="0px"
   x="0px"
   version="1.1"><metadata
     id="metadata126"><rdf:RDF><cc:Work
         rdf:about=""><dc:format>image/svg+xml</dc:format><dc:type
           rdf:resource="http://purl.org/dc/dcmitype/StillImage" /></cc:Work></rdf:RDF></metadata><defs
     id="defs124" /><sodipodi:namedview
     inkscape:current-layer="svg120"
     inkscape:window-maximized="0"
     inkscape:window-y="23"
     inkscape:window-x="0"
     inkscape:cy="30.055255"
     inkscape:cx="43.874"
     inkscape:zoom="7.704"
     showgrid="false"
     id="namedview122"
     inkscape:window-height="999"
     inkscape:window-width="1405"
     inkscape:pageshadow="2"
     inkscape:pageopacity="0"
     guidetolerance="10"
     gridtolerance="10"
     objecttolerance="10"
     borderopacity="1"
     bordercolor="#666666"
     pagecolor="#ffffff" /><g
     transform="translate(-6.126,-25.25)"
     id="g114"><path
       id="path112"
       d="m 39.077,63.76 c 4.906,0.225 9.085,3.291 10.922,7.588 1.837,-4.297 6.016,-7.363 10.922,-7.588 1.791,-4.223 5.956,-7.014 10.578,-7.014 1.394,0 2.754,0.251 4.055,0.747 2.042,-3.521 5.847,-5.747 9.945,-5.747 3.204,0 6.227,1.359 8.369,3.634 C 92.975,43.677 87.505,32.903 78.521,25.252 73.864,32.404 66.543,37.647 58.264,39.716 c -0.028,0.009 -0.058,0.016 -0.083,0.021 -0.296,0.057 -0.608,-0.02 -0.842,-0.215 -0.232,-0.196 -0.364,-0.487 -0.356,-0.792 l 0.008,-0.199 c 0.004,-0.073 0.008,-0.147 0.008,-0.223 0,-0.022 0,-0.096 0.002,-0.117 -0.025,-2.118 -0.479,-4.126 -1.297,-5.8 l -0.892,0.954 c -0.299,0.319 -0.77,0.409 -1.166,0.218 -2.213,-1.07 -5.082,-1.07 -7.295,0 -0.396,0.191 -0.867,0.102 -1.166,-0.218 l -0.892,-0.954 c -0.818,1.673 -1.271,3.677 -1.29,5.774 0,0.023 -0.004,0.093 -0.006,0.117 10e-4,0.101 0.005,0.175 0.009,0.248 l 0.008,0.199 c 0.008,0.312 -0.13,0.61 -0.374,0.806 -0.244,0.196 -0.564,0.266 -0.867,0.191 C 33.478,37.663 26.142,32.416 21.476,25.25 12.483,32.913 7.01,43.701 6.126,55.384 c 2.143,-2.276 5.167,-3.638 8.373,-3.638 4.099,0 7.903,2.227 9.945,5.747 1.301,-0.496 2.661,-0.747 4.055,-0.747 4.622,10e-4 8.787,2.792 10.578,7.014 z" /></g></svg>
