<?xml version="1.0" encoding="UTF-8" standalone="no"?>
<svg
   xmlns:dc="http://purl.org/dc/elements/1.1/"
   xmlns:cc="http://creativecommons.org/ns#"
   xmlns:rdf="http://www.w3.org/1999/02/22-rdf-syntax-ns#"
   xmlns:svg="http://www.w3.org/2000/svg"
   xmlns="http://www.w3.org/2000/svg"
   xmlns:sodipodi="http://sodipodi.sourceforge.net/DTD/sodipodi-0.dtd"
   xmlns:inkscape="http://www.inkscape.org/namespaces/inkscape"
   inkscape:version="1.0 (4035a4f, 2020-05-01)"
   height="97.087997"
   width="55.364902"
   sodipodi:docname="noun_Beer_style2_5693.svg"
   id="svg414"
   xml:space="preserve"
   enable-background="new 0 0 62.304 100"
   viewBox="0 0 55.364902 97.087997"
   y="0px"
   x="0px"
   version="1.1"><metadata
     id="metadata420"><rdf:RDF><cc:Work
         rdf:about=""><dc:format>image/svg+xml</dc:format><dc:type
           rdf:resource="http://purl.org/dc/dcmitype/StillImage" /></cc:Work></rdf:RDF></metadata><defs
     id="defs418" /><sodipodi:namedview
     inkscape:current-layer="svg414"
     inkscape:window-maximized="0"
     inkscape:window-y="212"
     inkscape:window-x="302"
     inkscape:cy="58.528737"
     inkscape:cx="27.549866"
     inkscape:zoom="5.7"
     showgrid="false"
     id="namedview416"
     inkscape:window-height="873"
     inkscape:window-width="1201"
     inkscape:pageshadow="2"
     inkscape:pageopacity="0"
     guidetolerance="10"
     gridtolerance="10"
     objecttolerance="10"
     borderopacity="1"
     bordercolor="#666666"
     pagecolor="#ffffff" /><path
     id="path408"
     d="M 51.204865,1.318 C 50.909865,0.526 50.153865,0 49.308865,0 H 6.0568654 c -0.845,0 -1.601,0.526 -1.896,1.318 C 0.39586539,11.454 -0.82213461,22.67 0.53986539,34.654 1.6518654,44.437 4.2538654,52.544 5.6528654,56.899 l 0.011,0.035 c 2.74,8.537 4.9219996,37.983 4.9439996,38.28 0.077,1.057 0.958,1.874 2.017,1.874 h 30.116 c 1.061,0 1.939,-0.817 2.017,-1.874 0.021,-0.297 2.204,-29.743 4.945,-38.28 l 0.011,-0.035 c 1.397,-4.356 4,-12.462 5.111,-22.245 1.362,-11.984 0.145,-23.2 -3.62,-33.336 z M 7.4808654,4.045 H 47.885865 c 1.783,5.171 2.875,10.642 3.269,16.368 L 4.2088654,20.468 c 0.39,-5.746 1.482,-11.235 3.272,-16.423 z"
     fill="#000000" /></svg>
