<?xml version="1.0" encoding="UTF-8" standalone="no"?>
<svg
   xmlns:dc="http://purl.org/dc/elements/1.1/"
   xmlns:cc="http://creativecommons.org/ns#"
   xmlns:rdf="http://www.w3.org/1999/02/22-rdf-syntax-ns#"
   xmlns:svg="http://www.w3.org/2000/svg"
   xmlns="http://www.w3.org/2000/svg"
   xmlns:sodipodi="http://sodipodi.sourceforge.net/DTD/sodipodi-0.dtd"
   xmlns:inkscape="http://www.inkscape.org/namespaces/inkscape"
   inkscape:version="1.0 (4035a4f, 2020-05-01)"
   height="28"
   width="7.7164001"
   sodipodi:docname="noun_beer_bottle_3349472.svg"
   id="svg372"
   version="1.1"
   y="0px"
   x="0px"
   viewBox="0 0 7.7164001 28"
   data-name="Layer 1">
  <metadata
     id="metadata378">
    <rdf:RDF>
      <cc:Work
         rdf:about="">
        <dc:format>image/svg+xml</dc:format>
        <dc:type
           rdf:resource="http://purl.org/dc/dcmitype/StillImage" />
      </cc:Work>
    </rdf:RDF>
  </metadata>
  <defs
     id="defs376" />
  <sodipodi:namedview
     inkscape:current-layer="svg372"
     inkscape:window-maximized="0"
     inkscape:window-y="23"
     inkscape:window-x="0"
     inkscape:cy="11.757207"
     inkscape:cx="3.8582"
     inkscape:zoom="13.94"
     showgrid="false"
     id="namedview374"
     inkscape:window-height="723"
     inkscape:window-width="1121"
     inkscape:pageshadow="2"
     inkscape:pageopacity="0"
     guidetolerance="10"
     gridtolerance="10"
     objecttolerance="10"
     borderopacity="1"
     bordercolor="#666666"
     pagecolor="#ffffff" />
  <title
     id="title362">Artboard 1</title>
  <path
     id="path364"
     d="M 5.42639,0.94451 H 5.54695 A 0.1263,0.1263 0 0 0 5.64514,0.89688 0.12287,0.12287 0 0 0 5.66751,0.79042 L 5.54501,0.28826 A 0.39052,0.39052 0 0 0 5.17848,0 H 2.53841 A 0.39259,0.39259 0 0 0 2.17091,0.28826 L 2.04841,0.79042 A 0.12489,0.12489 0 0 0 2.07174,0.89688 0.12323,0.12323 0 0 0 2.16945,0.94451 H 2.29001 L 2.03188,2.013 a 0.24909,0.24909 0 0 0 0.24208,0.30722 h 3.169 A 0.24909,0.24909 0 0 0 5.68505,2.013 Z" />
  <path
     id="path366"
     d="M 6.97691,10.07818 A 5.61455,5.61455 0 0 1 6.00201,7.69392 L 5.18212,1.63935 H 2.53428 L 1.71439,7.69392 a 5.61455,5.61455 0 0 1 -0.9749,2.38426 C 0.10627,11.01109 0,11.644 0,13.47184 v 13.5326 A 0.99552,0.99552 0 0 0 0.99555,28 h 5.7253 A 0.99552,0.99552 0 0 0 7.7164,27.00444 v -13.5326 c 0,-1.82784 -0.10627,-2.46075 -0.73949,-3.39366 z" />
</svg>
