<?xml version="1.0" encoding="UTF-8" standalone="no"?>
<svg
   xmlns:dc="http://purl.org/dc/elements/1.1/"
   xmlns:cc="http://creativecommons.org/ns#"
   xmlns:rdf="http://www.w3.org/1999/02/22-rdf-syntax-ns#"
   xmlns:svg="http://www.w3.org/2000/svg"
   xmlns="http://www.w3.org/2000/svg"
   xmlns:sodipodi="http://sodipodi.sourceforge.net/DTD/sodipodi-0.dtd"
   xmlns:inkscape="http://www.inkscape.org/namespaces/inkscape"
   inkscape:version="1.0 (4035a4f, 2020-05-01)"
   height="40.776611"
   width="89.998955"
   sodipodi:docname="noun_Bat_2088669.svg"
   id="svg138"
   xml:space="preserve"
   enable-background="new 0 0 100 100"
   viewBox="0 0 89.998955 40.776611"
   y="0px"
   x="0px"
   version="1.1"><metadata
     id="metadata144"><rdf:RDF><cc:Work
         rdf:about=""><dc:format>image/svg+xml</dc:format><dc:type
           rdf:resource="http://purl.org/dc/dcmitype/StillImage" /></cc:Work></rdf:RDF></metadata><defs
     id="defs142" /><sodipodi:namedview
     inkscape:current-layer="svg138"
     inkscape:window-maximized="0"
     inkscape:window-y="23"
     inkscape:window-x="0"
     inkscape:cy="28.604122"
     inkscape:cx="45.000414"
     inkscape:zoom="7.704"
     showgrid="false"
     id="namedview140"
     inkscape:window-height="906"
     inkscape:window-width="1330"
     inkscape:pageshadow="2"
     inkscape:pageopacity="0"
     guidetolerance="10"
     gridtolerance="10"
     objecttolerance="10"
     borderopacity="1"
     bordercolor="#666666"
     pagecolor="#ffffff" /><g
     transform="translate(-4.9995857,-29.612389)"
     id="g132"><path
       id="path128"
       d="m 78.231,39.104 c 1.639,6.124 -0.607,9.772 -3.051,11.841 -6.128,5.185 -18.561,4.413 -21.328,2.494 -0.575,-0.399 -0.886,-1.079 -0.813,-1.774 0.073,-0.696 0.52,-1.296 1.164,-1.566 0.482,-0.202 0.666,-0.371 0.382,-2.559 -0.21,-1.618 -0.472,-3.632 1.089,-5.015 0.789,-0.699 1.69,-2.844 1.577,-5.815 -0.698,1.115 -1.28,2.236 -1.316,3.139 -0.023,0.566 -0.295,1.093 -0.743,1.438 -0.448,0.346 -1.026,0.475 -1.579,0.356 -1.018,-0.223 -2.08,0.068 -2.793,0.351 -0.459,0.183 -0.971,0.18 -1.428,-0.006 -0.711,-0.29 -1.773,-0.591 -2.791,-0.38 -0.554,0.115 -1.131,-0.021 -1.575,-0.371 -0.445,-0.35 -0.711,-0.879 -0.728,-1.445 -0.028,-0.904 -0.598,-2.03 -1.285,-3.152 -0.143,2.969 0.737,5.123 1.519,5.83 1.547,1.398 1.265,3.41 1.039,5.026 -0.306,2.185 -0.123,2.356 0.356,2.562 0.642,0.277 1.083,0.881 1.149,1.577 0.067,0.696 -0.251,1.373 -0.83,1.766 -2.784,1.891 -15.221,2.542 -21.3,-2.703 -2.425,-2.092 -4.636,-5.763 -2.936,-11.872 -1.54,0.991 -3.23,2.508 -4.863,4.407 -3.975,4.623 -7.696,11.726 -8.246,18.461 1.838,-0.935 4.103,-1.503 6.453,-1.55 4.184,-0.081 8.015,1.49 10.784,4.379 3.587,-3.21 9.421,-5.825 14.893,-5.124 2.67,0.341 6.157,1.585 8.895,5.336 2.78,-3.72 6.294,-4.931 8.981,-5.248 0.566,-0.066 1.135,-0.098 1.704,-0.098 4.999,0 10.034,2.452 13.235,5.37 2.797,-2.861 6.637,-4.393 10.828,-4.273 2.35,0.07 4.608,0.661 6.436,1.614 C 90.627,55.36 86.975,48.22 83.046,43.558 81.435,41.643 79.761,40.11 78.231,39.104 Z"
       fill="none" /><path
       id="path130"
       d="m 85.978,41.09 c -3.701,-4.393 -7.678,-6.995 -10.91,-7.142 -0.663,-0.034 -1.308,0.293 -1.68,0.851 -0.372,0.558 -0.425,1.271 -0.139,1.878 2.382,5.059 2.259,8.824 -0.367,11.19 -3.592,3.236 -10.8,3.508 -14.598,2.998 0.419,-1.354 0.228,-2.823 0.099,-3.818 -0.069,-0.531 -0.182,-1.4 -0.105,-1.714 2.548,-2.33 3.946,-7.978 1.711,-14.359 -0.258,-0.736 -0.935,-1.242 -1.714,-1.279 -0.771,-0.032 -1.502,0.399 -1.83,1.107 -0.312,0.672 -0.866,1.496 -1.452,2.369 -0.942,1.402 -1.973,2.94 -2.513,4.575 -0.871,0.042 -1.676,0.22 -2.357,0.435 -0.678,-0.222 -1.481,-0.407 -2.351,-0.458 -0.523,-1.64 -1.539,-3.187 -2.467,-4.598 -0.577,-0.879 -1.123,-1.71 -1.429,-2.386 -0.321,-0.71 -1.038,-1.157 -1.819,-1.125 -0.779,0.03 -1.461,0.53 -1.726,1.263 -2.299,6.36 -0.956,12.021 1.568,14.376 0.074,0.314 -0.047,1.183 -0.122,1.712 -0.139,0.994 -0.344,2.459 0.06,3.817 -3.809,0.475 -11.007,0.13 -14.565,-3.14 -2.602,-2.392 -2.689,-6.158 -0.257,-11.193 0.292,-0.604 0.246,-1.317 -0.121,-1.879 -0.367,-0.562 -1.008,-0.902 -1.671,-0.867 -3.234,0.115 -7.236,2.679 -10.98,7.035 -4.882,5.68 -10.195,15.676 -9.098,25.153 0.094,0.805 0.683,1.464 1.472,1.646 0.792,0.183 1.609,-0.152 2.044,-0.835 0.813,-1.273 3.462,-2.662 6.77,-2.728 2.177,-0.058 6.214,0.485 9.015,4.51 0.342,0.491 0.893,0.794 1.491,0.819 0.611,0.037 1.173,-0.23 1.555,-0.69 2.61,-3.148 8.208,-6.038 13.056,-5.414 3.37,0.431 5.936,2.479 7.627,6.088 0.314,0.669 0.985,1.099 1.725,1.102 0.003,0 0.006,0 0.009,0 0.736,0 1.407,-0.422 1.725,-1.085 1.726,-3.589 4.324,-5.611 7.723,-6.011 4.907,-0.58 10.517,2.364 13.1,5.543 0.377,0.464 0.947,0.708 1.547,0.706 0.598,-0.02 1.153,-0.317 1.499,-0.805 2.84,-3.997 6.894,-4.481 9.058,-4.422 3.307,0.099 5.942,1.514 6.742,2.795 0.429,0.687 1.242,1.031 2.035,0.856 0.791,-0.174 1.387,-0.827 1.488,-1.631 1.193,-9.468 -4.021,-19.516 -8.848,-25.245 z m -1.302,19.396 c -4.191,-0.12 -8.031,1.412 -10.828,4.273 -3.201,-2.918 -8.236,-5.37 -13.235,-5.37 -0.569,0 -1.139,0.032 -1.704,0.098 -2.687,0.316 -6.201,1.527 -8.981,5.248 -2.739,-3.751 -6.226,-4.996 -8.895,-5.336 -5.472,-0.701 -11.307,1.914 -14.893,5.124 -2.769,-2.889 -6.601,-4.46 -10.784,-4.379 -2.351,0.047 -4.615,0.615 -6.453,1.55 0.55,-6.734 4.271,-13.837 8.246,-18.461 1.633,-1.9 3.322,-3.416 4.863,-4.407 -1.7,6.109 0.511,9.779 2.936,11.872 6.079,5.244 18.516,4.594 21.3,2.703 0.578,-0.393 0.897,-1.07 0.83,-1.766 -0.066,-0.696 -0.507,-1.3 -1.149,-1.577 -0.48,-0.206 -0.662,-0.377 -0.356,-2.562 0.226,-1.616 0.508,-3.628 -1.039,-5.026 -0.782,-0.707 -1.661,-2.86 -1.519,-5.83 0.686,1.121 1.257,2.248 1.285,3.152 0.017,0.566 0.284,1.095 0.728,1.445 0.444,0.351 1.021,0.486 1.575,0.371 1.018,-0.211 2.08,0.09 2.791,0.38 0.457,0.186 0.969,0.189 1.428,0.006 0.713,-0.283 1.776,-0.574 2.793,-0.351 0.553,0.12 1.131,-0.01 1.579,-0.356 0.448,-0.346 0.72,-0.872 0.743,-1.438 0.036,-0.904 0.618,-2.024 1.316,-3.139 0.113,2.971 -0.788,5.116 -1.577,5.815 -1.561,1.383 -1.299,3.397 -1.089,5.015 0.284,2.188 0.1,2.357 -0.382,2.559 -0.645,0.27 -1.092,0.87 -1.164,1.566 -0.073,0.695 0.238,1.375 0.813,1.774 2.768,1.919 15.2,2.691 21.328,-2.494 2.444,-2.069 4.691,-5.717 3.051,-11.841 1.53,1.006 3.204,2.539 4.818,4.454 3.929,4.662 7.58,11.802 8.064,18.542 -1.831,-0.953 -4.089,-1.544 -6.439,-1.614 z" /></g></svg>
