<?xml version="1.0" encoding="UTF-8" standalone="no"?>
<svg
   xmlns:dc="http://purl.org/dc/elements/1.1/"
   xmlns:cc="http://creativecommons.org/ns#"
   xmlns:rdf="http://www.w3.org/1999/02/22-rdf-syntax-ns#"
   xmlns:svg="http://www.w3.org/2000/svg"
   xmlns="http://www.w3.org/2000/svg"
   xmlns:sodipodi="http://sodipodi.sourceforge.net/DTD/sodipodi-0.dtd"
   xmlns:inkscape="http://www.inkscape.org/namespaces/inkscape"
   inkscape:version="1.0 (4035a4f, 2020-05-01)"
   height="512.00818"
   width="575.99878"
   sodipodi:docname="spider-solid.svg"
   id="svg12"
   version="1.1"
   viewBox="0 0 575.99878 512.00818"
   role="img"
   class="svg-inline--fa fa-spider fa-w-18"
   data-icon="spider"
   data-prefix="fas"
   focusable="false"
   aria-hidden="true">
  <metadata
     id="metadata18">
    <rdf:RDF>
      <cc:Work
         rdf:about="">
        <dc:format>image/svg+xml</dc:format>
        <dc:type
           rdf:resource="http://purl.org/dc/dcmitype/StillImage" />
      </cc:Work>
    </rdf:RDF>
  </metadata>
  <defs
     id="defs16" />
  <sodipodi:namedview
     inkscape:current-layer="svg12"
     inkscape:window-maximized="0"
     inkscape:window-y="640"
     inkscape:window-x="748"
     inkscape:cy="256.00817"
     inkscape:cx="287.99939"
     inkscape:zoom="0.52249848"
     showgrid="false"
     id="namedview14"
     inkscape:window-height="480"
     inkscape:window-width="709"
     inkscape:pageshadow="2"
     inkscape:pageopacity="0"
     guidetolerance="10"
     gridtolerance="10"
     objecttolerance="10"
     borderopacity="1"
     bordercolor="#666666"
     pagecolor="#ffffff" />
  <path
     id="path10"
     d="m 151.16939,167.35817 25.93,8.65 h 4.67 l 5.22,-26.12 c 0.72,-3.58 1.8,-7.58 3.21,-11.79 l -20.29,-40.580005 23.8,-71.39 c 2.79,-8.38 -1.73,-17.4399998 -10.12,-20.2399998 l -15.17,-5.05999997 c -8.38,-2.80000003 -17.45,1.72999997 -20.24,10.11999977 l -25.89,77.68 a 32.04,32.04 0 0 0 1.73,24.430005 z m 422.14,182.03 -52.75,-79.12 a 32.002,32.002 0 0 0 -26.62,-14.25 h -77.94 l 68.99,-24.36 a 32.03,32.03 0 0 0 16.51,-12.61 l 53.6,-80.41 c 4.9,-7.35 2.91,-17.29 -4.44,-22.19 l -13.31,-8.88 c -7.35,-4.9 -17.29,-2.91 -22.19,4.44 l -50.56,75.83 -60.5,20.17 h -36.1 l -10.37,-51.85 c -2.19,-10.97 -17.37,-60.150005 -69.63,-60.150005 -52.26,0 -67.44,49.180005 -69.63,60.150005 l -10.37,51.85 h -36.1 l -60.49,-20.17 -50.570003,-75.83 c -4.9,-7.35 -14.83,-9.34 -22.19,-4.44 l -13.31,8.88 c -7.35,4.9 -9.34,14.83 -4.44,22.19 l 53.6,80.41 a 32.03,32.03 0 0 0 16.51,12.61 l 68.990003,24.35 H 82.059387 a 32.02,32.02 0 0 0 -26.63,14.25 l -52.7399998,79.13 c -4.9,7.35 -2.91999996,17.29 4.44,22.19 l 13.3099998,8.88 c 7.35,4.9 17.29,2.91 22.19,-4.44 l 48,-72 h 47.060003 l -60.830003,97.33 a 31.988,31.988 0 0 0 -4.86,16.96 v 77.7 c 0,8.84 7.16,16 16,16 h 16.000003 c 8.84,0 16,-7.16 16,-16 v -73.11 l 74.08,-118.53 c -1.01,14.05 -2.08,28.11 -2.08,42.21 0,53.07 40.76,101.43 96,101.43 55.24,0 96,-48.36 96,-101.43 0,-14.1 -1.08,-28.16 -2.08,-42.21 l 74.08,118.53 v 73.11 c 0,8.84 7.16,16 16,16 h 16 c 8.84,0 16,-7.16 16,-16 v -77.71 c 0,-6 -1.69,-11.88 -4.86,-16.96 l -60.83,-97.33 h 47.06 l 48,72 c 4.9,7.35 14.84,9.34 22.19,4.44 l 13.31,-8.88 c 7.36,-4.9 9.34,-14.83 4.44,-22.18 z m -167.22,-251.870005 -20.29,40.580005 c 1.41,4.21 2.49,8.21 3.21,11.79 l 5.22,26.12 h 4.67 l 25.93,-8.65 27.15,-54.3 a 31.995,31.995 0 0 0 1.73,-24.430005 l -25.89,-77.68 c -2.79,-8.3799998 -11.86,-12.9199998 -20.24,-10.11999977 l -15.17,5.05999997 c -8.38,2.8 -12.91,11.8599998 -10.12,20.2399998 z"
     fill="currentColor" />
</svg>
