<?xml version="1.0" encoding="UTF-8" standalone="no"?>
<svg
   xmlns:dc="http://purl.org/dc/elements/1.1/"
   xmlns:cc="http://creativecommons.org/ns#"
   xmlns:rdf="http://www.w3.org/1999/02/22-rdf-syntax-ns#"
   xmlns:svg="http://www.w3.org/2000/svg"
   xmlns="http://www.w3.org/2000/svg"
   xmlns:sodipodi="http://sodipodi.sourceforge.net/DTD/sodipodi-0.dtd"
   xmlns:inkscape="http://www.inkscape.org/namespaces/inkscape"
   inkscape:version="1.0 (4035a4f, 2020-05-01)"
   height="512"
   width="351.90576"
   sodipodi:docname="trade-question-solid.svg"
   id="svg12"
   version="1.1"
   viewBox="0 0 351.90576 512"
   role="img"
   class="svg-inline--fa fa-question fa-w-12"
   data-icon="question"
   data-prefix="fas"
   focusable="false"
   aria-hidden="true">
  <metadata
     id="metadata18">
    <rdf:RDF>
      <cc:Work
         rdf:about="">
        <dc:format>image/svg+xml</dc:format>
        <dc:type
           rdf:resource="http://purl.org/dc/dcmitype/StillImage" />
      </cc:Work>
    </rdf:RDF>
  </metadata>
  <defs
     id="defs16" />
  <sodipodi:namedview
     inkscape:current-layer="svg12"
     inkscape:window-maximized="0"
     inkscape:window-y="23"
     inkscape:window-x="0"
     inkscape:cy="256"
     inkscape:cx="166.40277"
     inkscape:zoom="1.8808594"
     showgrid="false"
     id="namedview14"
     inkscape:window-height="480"
     inkscape:window-width="705"
     inkscape:pageshadow="2"
     inkscape:pageopacity="0"
     guidetolerance="10"
     gridtolerance="10"
     objecttolerance="10"
     borderopacity="1"
     bordercolor="#666666"
     pagecolor="#ffffff" />
  <path
     id="path10"
     d="M 176.42377,0 C 96.604773,0 44.905773,32.703 4.3167733,91.026 c -7.363,10.58 -5.09300005,25.086 5.178,32.874 l 43.1379997,32.709 c 10.373,7.865 25.132,6.026 33.253,-4.148 25.048997,-31.381 43.629997,-49.449 82.756997,-49.449 30.764,0 68.816,19.799 68.816,49.631 0,22.552 -18.617,34.134 -48.993,51.164 -35.423,19.86 -82.299,44.576 -82.299,106.405 V 320 c 0,13.255 10.745,24 24,24 h 72.471 c 13.255,0 24,-10.745 24,-24 v -5.773 c 0,-42.86 125.268,-44.645 125.268,-160.627 C 351.90677,66.256 261.30477,0 176.42377,0 Z m -10.021,373.459 c -38.196,0 -69.270997,31.075 -69.270997,69.271 0,38.195 31.074997,69.27 69.270997,69.27 38.196,0 69.271,-31.075 69.271,-69.271 0,-38.196 -31.075,-69.27 -69.271,-69.27 z"
     fill="currentColor" />
</svg>
